<svg width="290" height="290" viewBox="0 0 290 290" fill="none" xmlns="http://www.w3.org/2000/svg">
<path fill-rule="evenodd" clip-rule="evenodd" d="M36.5229 240.795C33.4942 237.366 30.6305 233.796 27.9415 230.1L79.6596 274.129C75.5818 272.064 71.6006 269.81 67.7372 267.37L36.5229 240.795ZM4.47691 179.608C4.13071 178.209 3.8078 176.802 3.50591 175.393L137.56 289.526C136.121 289.453 134.683 289.358 133.244 289.24L4.47691 179.608ZM0.308578 142.155C0.329077 141.056 0.361058 139.954 0.40748 138.853L174.126 286.756C173.046 286.979 171.964 287.186 170.881 287.386L0.308578 142.155ZM4.19247 111.567C4.41398 110.631 4.64738 109.699 4.88922 108.764L203.114 277.538C202.235 277.921 201.347 278.301 200.459 278.669L4.19247 111.567ZM13.1628 85.3021C13.5307 84.4868 13.9097 83.6772 14.2921 82.8722L227.176 264.121C226.441 264.628 225.703 265.131 224.956 265.624L13.1628 85.3021ZM26.1328 62.4453C26.6288 61.7362 27.1249 61.03 27.6332 60.3315L247.304 247.356C246.691 247.97 246.073 248.572 245.453 249.175L26.1328 62.4453ZM42.6908 42.6415C43.3044 42.0307 43.9213 41.4245 44.5436 40.8257L263.863 227.551C263.366 228.264 262.87 228.971 262.362 229.669L42.6908 42.6415ZM62.8191 25.8756C63.5538 25.3688 64.2956 24.8691 65.0391 24.377L276.832 204.695C276.464 205.51 276.089 206.319 275.707 207.125L62.8191 25.8756ZM86.8811 12.4624C87.7602 12.076 88.644 11.7008 89.5322 11.3318L285.803 178.433C285.581 179.369 285.348 180.303 285.106 181.232L86.8811 12.4624ZM115.868 3.24027C116.949 3.01761 118.031 2.81056 119.114 2.61463L289.691 147.841C289.666 148.942 289.634 150.042 289.587 151.145L115.868 3.24027ZM152.431 0.471211C153.874 0.543281 155.316 0.642343 156.751 0.756336L285.519 110.39C285.864 111.788 286.188 113.195 286.489 114.608L152.431 0.471211ZM210.339 15.871C214.414 17.9334 218.39 20.1838 222.25 22.6235L253.48 49.213C256.505 52.6386 259.365 56.2046 262.054 59.9018L210.339 15.871Z" fill="#C75E90" fill-opacity="0.23"/>
</svg>
