<svg width="57" height="57" viewBox="0 0 57 57" fill="none" xmlns="http://www.w3.org/2000/svg">
<g clip-path="url(#clip0_1_517)">
<path d="M51.362 15.3964C48.2547 15.3964 45.7294 17.922 45.7294 21.0294C45.7294 23.1125 46.8814 24.914 48.5689 25.8871L41.5986 28.3957L30.8269 15.5784C32.789 14.7 34.1656 12.7355 34.1656 10.4488C34.1656 7.34141 31.64 4.81616 28.533 4.81616C25.4294 4.81616 22.9038 7.34175 22.9038 10.4488C22.9038 12.7112 24.253 14.6581 26.189 15.55L15.3957 28.3886L8.42132 25.8816C10.1094 24.9102 11.2618 23.1054 11.2618 21.0256C11.2618 17.9183 8.73621 15.393 5.62921 15.393C2.52558 15.393 0 17.9186 0 21.0256C0 23.6665 1.84066 25.8745 4.29928 26.4773V42.5291V42.7611C4.29928 42.8004 4.31822 42.8291 4.31991 42.8667C4.32363 42.9076 4.3101 42.956 4.31991 42.9969C4.33073 43.0612 4.36354 43.1112 4.38147 43.1735C4.40548 43.236 4.42172 43.2999 4.45114 43.3642C4.4968 43.4566 4.56276 43.5425 4.625 43.6209C4.65544 43.6581 4.66863 43.7065 4.70177 43.7332C7.63121 48.0339 26.2188 48.1729 28.4998 48.1729C30.7812 48.1729 49.3695 48.0406 52.2999 43.7332C52.3321 43.7011 52.3446 43.6551 52.375 43.6209C52.4376 43.5428 52.5015 43.4569 52.5499 43.3642C52.5786 43.3033 52.5945 43.2394 52.6175 43.1735C52.6354 43.1163 52.6693 43.0612 52.6818 42.9969C52.6889 42.956 52.6764 42.9076 52.6818 42.8667C52.6818 42.8295 52.6997 42.8024 52.6997 42.7611V42.5291V26.4773C55.1648 25.8745 57 23.6662 57 21.0256C56.9912 17.922 54.4656 15.3964 51.362 15.3964ZM28.491 45.4332C21.2708 45.4332 15.8449 44.8464 12.2393 44.1344C9.53817 43.603 7.8514 43.0037 7.21315 42.5328C7.66977 42.1977 8.66485 41.7945 10.1849 41.395C11.7793 40.9776 13.9545 40.5674 16.7101 40.2498C19.8796 39.8824 23.8082 39.6328 28.491 39.6328C33.1742 39.6328 37.1035 39.8824 40.2714 40.2498C43.0286 40.567 45.2031 40.9773 46.8013 41.395C48.3172 41.7948 49.3126 42.1977 49.7693 42.5328C49.1324 43.004 47.4487 43.603 44.7462 44.1344C41.1379 44.8464 35.712 45.4332 28.491 45.4332ZM40.9918 37.5957L32.541 34.5563L40.7242 31.6184L46.5388 38.5356C44.8355 38.1274 42.92 37.824 40.9918 37.5957ZM31.0389 36.9307C29.802 36.9002 28.8942 36.8931 28.491 36.8931C28.0872 36.8931 27.1794 36.9002 25.9431 36.9307L28.491 36.0175L31.0389 36.9307ZM15.9903 37.5957C14.057 37.824 12.1456 38.127 10.4423 38.5356L16.2568 31.6184L24.439 34.5563L15.9903 37.5957ZM49.9529 28.303V38.336L43.4748 30.6308L49.9529 28.303ZM25.638 10.4521C25.638 8.85737 26.9365 7.55889 28.5313 7.55889C30.1257 7.55889 31.4208 8.85737 31.4208 10.4521C31.4208 12.0432 30.1257 13.3417 28.5313 13.3417C26.9365 13.3417 25.638 12.0432 25.638 10.4521ZM28.491 17.0659L38.8443 29.3837L28.491 33.1046L18.1371 29.3837L28.491 17.0659ZM13.5083 30.6308L7.03017 38.336V28.303L13.5083 30.6308ZM2.73258 21.0294C2.73258 19.4346 4.02768 18.1361 5.62211 18.1361C7.21687 18.1361 8.51535 19.4346 8.51535 21.0294C8.51535 22.6238 7.21687 23.9189 5.62211 23.9189C4.02734 23.9189 2.73258 22.6238 2.73258 21.0294ZM51.362 23.9189C49.7672 23.9189 48.4688 22.6238 48.4688 21.0294C48.4688 19.4346 49.7672 18.1361 51.362 18.1361C52.9564 18.1361 54.2515 19.4346 54.2515 21.0294C54.2515 22.6238 52.9564 23.9189 51.362 23.9189ZM52.4109 47.6645C52.7423 48.346 52.4572 49.1646 51.7794 49.4981C49.0397 50.8341 40.778 52.184 28.491 52.184C16.3874 52.184 7.8355 50.5608 5.293 49.539C4.59219 49.261 4.25226 48.4563 4.533 47.7538C4.81846 47.0547 5.62177 46.7208 6.31751 46.9938C8.30632 47.7947 16.3373 49.4446 28.4944 49.4446C41.079 49.4446 48.5973 48.0034 50.5807 47.0388C51.2585 46.7012 52.0753 46.983 52.4109 47.6645Z" fill="#C75E90"/>
</g>
<defs>
<clipPath id="clip0_1_517">
<rect width="57" height="57" fill="white"/>
</clipPath>
</defs>
</svg>
