<svg width="57" height="57" viewBox="0 0 57 57" fill="none" xmlns="http://www.w3.org/2000/svg">
<g clip-path="url(#clip0_1_520)">
<path d="M31.6664 29.0056C31.6664 27.2612 30.2468 25.845 28.504 25.845C26.7605 25.845 25.3434 27.2612 25.3434 29.0056C25.3434 30.7465 26.7605 32.1661 28.504 32.1661C30.2471 32.1661 31.6664 30.7465 31.6664 29.0056ZM28.5027 29.5951C28.1786 29.5951 27.9135 29.3306 27.9135 29.0059C27.9135 28.6811 28.177 28.4167 28.5027 28.4167C28.8281 28.4167 29.0925 28.6811 29.0925 29.0059C29.0925 29.3306 28.8265 29.5951 28.5027 29.5951ZM53.841 15.6266C52.0966 15.6266 50.6805 17.0421 50.6805 18.7871C50.6805 19.4646 50.8983 20.0865 51.2595 20.603L38.4799 30.5293L29.8084 10.9426C30.8998 10.4404 31.6598 9.34866 31.6598 8.07314C31.6598 6.32811 30.2436 4.9126 28.5008 4.9126C26.7573 4.9126 25.3396 6.32811 25.3396 8.07314C25.3396 9.34898 26.1031 10.4404 27.1926 10.9426L18.5528 30.4586L5.7427 20.6026C6.10427 20.0861 6.32205 19.4643 6.32205 18.7868C6.32205 17.0418 4.90431 15.6263 3.16055 15.6263C1.41774 15.6266 0 17.0421 0 18.7871C0 20.529 1.41774 21.948 3.16055 21.948C3.22912 21.948 3.29451 21.9312 3.36149 21.928L12.4558 45.4185C12.6476 45.914 13.1238 46.2387 13.6536 46.2387H43.3464C43.8804 46.2387 44.354 45.9172 44.5435 45.4185L53.6385 21.928C53.7055 21.9312 53.7706 21.948 53.8375 21.948C55.5839 21.948 57 20.5293 57 18.7871C57.0035 17.0421 55.5839 15.6266 53.841 15.6266ZM28.5027 7.48395C28.8268 7.48395 29.0925 7.74776 29.0925 8.07314C29.0925 8.39885 28.8281 8.66233 28.5027 8.66233C28.177 8.66233 27.9135 8.39885 27.9135 8.07314C27.9132 7.74744 28.1786 7.48395 28.5027 7.48395ZM28.5027 14.3368L36.3911 32.1563L28.6119 38.1961L20.6512 32.0725L28.5027 14.3368ZM2.57453 18.7871C2.57453 18.4633 2.83833 18.1979 3.16467 18.1979C3.49038 18.1979 3.75386 18.4617 3.75386 18.7871C3.75386 19.1128 3.49006 19.3763 3.16467 19.3763C2.83833 19.3763 2.57453 19.1109 2.57453 18.7871ZM17.484 32.8794L13.6828 41.464L7.33821 25.073L17.484 32.8794ZM15.5186 43.6671L19.5814 34.4934L26.5135 39.8272L21.5702 43.6674H15.5186V43.6671ZM25.7612 43.6671L28.6189 41.4475L31.5077 43.6671H25.7612ZM35.393 43.4125L30.7188 39.8167L37.4621 34.5768L41.4884 43.6671H35.646C35.5755 43.5734 35.4917 43.4896 35.393 43.4125ZM43.3213 41.464L39.5548 32.9528L49.651 25.1073L43.3213 41.464ZM53.841 19.3763C53.5195 19.3763 53.2519 19.1128 53.2519 18.7871C53.2519 18.4617 53.5131 18.1979 53.841 18.1979C54.1693 18.1979 54.4318 18.4617 54.4318 18.7871C54.4318 19.1128 54.1693 19.3763 53.841 19.3763ZM44.5016 50.8018C44.5016 51.5116 43.9258 52.0875 43.2156 52.0875H13.7876C13.0777 52.0875 12.5019 51.5119 12.5019 50.8018C12.5019 50.0917 13.0777 49.5161 13.7876 49.5161H43.2156C43.9289 49.5161 44.5016 50.092 44.5016 50.8018Z" fill="#C75E90"/>
</g>
<defs>
<clipPath id="clip0_1_520">
<rect width="57" height="57" fill="white"/>
</clipPath>
</defs>
</svg>
