<svg width="66" height="66" viewBox="0 0 66 66" fill="none" xmlns="http://www.w3.org/2000/svg">
<g clip-path="url(#clip0_1_523)">
<path d="M66 36.4163C66 30.3247 62.7061 24.7028 57.4068 21.7462C55.2933 20.5722 52.9423 19.9045 50.5346 19.7334C50.081 19.316 49.6015 18.9225 49.0966 18.5745C46.1992 16.573 42.7763 16.0901 39.5855 16.8902L38.3739 13.9888L40.0386 9.99601L34.9925 13.153C34.7711 12.6334 34.3586 12.2185 33.8365 11.9995L36.9877 6.94995L33.0027 8.61521L29.0113 6.94995L32.1639 11.9995C31.6454 12.2185 31.2294 12.6334 31.008 13.153L25.9609 9.9965L27.6208 13.9893L26.4145 16.8878C23.2184 16.0876 19.7955 16.571 16.9019 18.5775C16.419 18.9098 15.9678 19.2877 15.5319 19.6806C12.9531 19.7359 10.4168 20.4412 8.16013 21.7662C3.12524 24.7302 0 30.3413 0 36.4163C0 38.1613 0.259052 39.8862 0.735609 41.4219C1.31432 44.1747 2.89796 47.0409 4.96939 49.8611V59.0501H61.0052V49.562C63.0361 46.8918 64.5825 44.1801 65.1495 41.5822C65.7219 39.9067 66 38.1666 66 36.4163ZM47.3752 21.0683C50.8445 23.4809 53.0093 28.1125 53.0093 33.1635C53.0093 34.6426 52.8236 36.0937 52.432 37.5992C51.7922 41.223 49.3855 45.2055 46.447 48.9349H45.4416C48.4778 45.1381 51.0605 40.9991 51.7204 37.2873C52.0713 35.9676 52.2463 34.581 52.2463 33.163C52.2463 28.3584 50.2101 23.9608 46.9465 21.6875C45.5085 20.6978 43.9669 20.1963 42.3637 20.1963C39.6676 20.1963 37.1055 21.7095 35.2344 24.2986C35.0125 24.1681 34.8014 23.9892 34.5741 23.8993C37.8122 19.4138 43.1942 18.1728 47.3752 21.0683ZM43.4982 48.9383H39.3587C40.2038 46.3502 40.7249 43.1952 40.7249 39.6692C40.7249 33.1147 39.0132 27.7596 36.4359 25.2116C38.9467 21.7257 42.9053 20.7408 46.0916 22.9369C48.9573 24.932 50.736 28.8486 50.736 33.1635C50.736 34.4524 50.5815 35.7101 50.2516 36.9623C49.5712 40.7518 46.7305 45.0511 43.4982 48.9383ZM34.9979 14.8271L38.6578 17.1175C37.5698 17.4821 36.539 18.0491 35.5595 18.7216L33.8468 15.9796C34.3639 15.7602 34.776 15.3442 34.9979 14.8271ZM33.0076 26.6217C34.9148 26.6217 37.6832 31.7045 37.6832 39.6692C37.6832 43.5148 37.0336 46.6645 36.1519 48.9251L36.2653 48.9354H28.2151L29.812 48.7883C28.9566 46.5379 28.3285 43.445 28.3285 39.6638C28.331 31.707 31.0989 26.6217 33.0076 26.6217ZM26.6466 48.9383H22.5033C19.2861 45.0926 16.4811 40.8495 15.8261 37.1539C15.4507 35.7203 15.285 34.4529 15.285 33.1689C15.285 28.8515 17.0739 24.9325 19.9514 22.9373C23.1152 20.7364 27.0743 21.7237 29.6003 25.2092C27.0162 27.7508 25.301 33.1093 25.301 39.6692C25.2957 43.1854 25.7971 46.3502 26.6466 48.9383ZM31.0178 14.8271C31.2343 15.3442 31.6502 15.7601 32.1688 15.9816L30.461 18.7212C29.4815 18.0462 28.4492 17.4841 27.3617 17.1194L31.0178 14.8271ZM18.6419 21.0683C20.1787 20.0052 21.9094 19.4421 23.6465 19.4421C26.6056 19.4421 29.4112 21.0839 31.441 23.8973C31.2074 23.9877 31.0031 24.1617 30.7866 24.2917C28.9038 21.7076 26.3392 20.1973 23.647 20.1973C22.0399 20.1973 20.5037 20.6983 19.0809 21.6885C15.8041 23.9643 13.7639 28.3613 13.7639 33.164C13.7639 34.5815 13.9482 35.9652 14.3373 37.4731C14.9805 41.0974 17.5441 45.1752 20.5584 48.9354H19.5897C16.6409 45.1796 14.2131 41.1541 13.5631 37.4804C13.1921 36.0708 13.0063 34.6172 13.0063 33.1635C13.0059 28.1179 15.1662 23.4838 18.6419 21.0683ZM3.04508 36.4163C3.04508 31.4113 5.60333 26.7982 9.70661 24.3783C10.6602 23.8211 11.671 23.3988 12.7209 23.1138C10.973 25.9722 9.96811 29.4855 9.96811 33.164C9.96811 34.8806 10.19 36.5869 10.5933 38.128C11.2169 41.6595 13.2493 45.3815 15.8036 48.9354H8.11271C5.93375 46.144 4.24405 43.3193 3.68733 40.6643C3.26161 39.2903 3.04508 37.8573 3.04508 36.4163ZM21.2232 55.8897H13.0938V52.8612H21.2232V55.8897ZM37.0703 55.8897H28.9458V52.8612H37.0703V55.8897ZM52.9169 55.8897H44.7925V52.8612H52.9169V55.8897ZM62.2574 40.7904C61.6802 43.3863 59.9377 46.1826 57.6595 48.9383H50.236C52.762 45.4196 54.7826 41.7367 55.4009 38.2541C55.8237 36.6148 56.0407 34.8987 56.0407 33.1689C56.0407 29.5759 55.0871 26.1579 53.4218 23.3386C54.2777 23.6104 55.1257 23.9457 55.9273 24.3978C60.273 26.8182 62.9691 31.4269 62.9691 36.4168C62.9691 37.8499 62.7369 39.2728 62.2574 40.7904Z" fill="white"/>
</g>
<defs>
<clipPath id="clip0_1_523">
<rect width="66" height="66" fill="white"/>
</clipPath>
</defs>
</svg>
