<svg width="44" height="43" viewBox="0 0 44 43" fill="none" xmlns="http://www.w3.org/2000/svg">
<path d="M17.6667 21.0003L26.3333 27.5003L17.6667 32.9169L23.0833 40.5003M37.1667 16.1861V30.1003C37.1667 33.7405 37.1667 35.5607 36.4582 36.951C35.835 38.1741 34.8408 39.1686 33.6177 39.7918C32.2271 40.5003 30.4071 40.5003 26.7667 40.5003H17.2333C13.593 40.5003 11.7728 40.5003 10.3824 39.7918C9.15934 39.1686 8.16497 38.1741 7.54179 36.951C6.83333 35.5607 6.83333 33.7405 6.83333 30.1003V16.1847M41.5 21.0003L29.7281 7.92215C27.0507 4.94784 25.7122 3.46066 24.1355 2.91165C22.751 2.42941 21.2438 2.42952 19.8591 2.91195C18.2827 3.46122 16.9443 4.94857 14.2675 7.9233L2.5 21.0003" stroke="white" stroke-width="4" stroke-linecap="round" stroke-linejoin="round"/>
</svg>
