<svg width="44" height="44" viewBox="0 0 44 44" fill="none" xmlns="http://www.w3.org/2000/svg">
<path fill-rule="evenodd" clip-rule="evenodd" d="M0 22C0 9.84974 9.84974 0 22 0C34.1503 0 44 9.84974 44 22C44 34.1503 34.1503 44 22 44C9.84974 44 0 34.1503 0 22ZM11.275 18.2875V33H15.95V18.2875H11.275ZM11 13.6125C11 15.125 12.1 16.225 13.6125 16.225C15.125 16.225 16.225 15.125 16.225 13.6125C16.225 12.1 15.125 11 13.6125 11C12.2375 11 11 12.1 11 13.6125ZM28.325 33H32.725V23.925C32.725 19.3875 29.975 17.875 27.3625 17.875C25.025 17.875 23.375 19.3875 22.9625 20.35V18.2875H18.5625V33H23.2375V25.1625C23.2375 23.1 24.6125 22 25.9875 22C27.3625 22 28.325 22.6875 28.325 25.025V33Z" fill="#C75E90"/>
</svg>
