<svg width="108" height="108" viewBox="0 0 108 108" fill="none" xmlns="http://www.w3.org/2000/svg">
<path d="M54 0C24.1754 0 0 24.1754 0 54C0 83.8246 24.1754 108 54 108C83.8246 108 108 83.8246 108 54C108 24.1754 83.8246 0 54 0ZM86.265 39.2383C85.7458 39.5862 81.9658 42.1563 80.4912 45.5054C80.4912 45.5054 76.7942 55.6979 69.956 66.4356C68.4554 71.2852 76.1348 84.9721 76.1348 84.9721H76.0777C77.3758 84.9721 78.4142 86.0417 78.4142 87.3087C78.4142 88.5756 77.3446 89.6452 76.0777 89.6452H73.2479C73.1025 89.6452 72.9883 89.5881 72.8429 89.5569C72.8117 89.5258 72.7858 89.5258 72.7546 89.5258C71.9446 89.3544 71.3112 88.7729 71.0515 87.994C71.0515 87.9629 71.0204 87.9629 71.0204 87.9369C70.0702 85.86 60.5112 71.2229 60.5112 71.2229C58.2006 66.9496 53.7248 64.2963 48.8752 64.2963C46.7983 64.2963 44.8356 64.7585 42.9871 65.6827L43.8231 67.3546C45.4119 66.5758 47.0838 66.1708 48.8752 66.1708C52.946 66.1708 56.6429 68.336 58.6887 71.8304C59.1819 72.926 59.4675 74.1669 59.4675 75.4702L56.726 84.5048H62.3856C63.7979 84.5048 64.9558 85.6575 64.9558 87.075C64.9558 88.4925 63.8031 89.6452 62.3856 89.6452H36.6058C31.0915 89.6452 26.4133 87.6825 23.0954 83.9596C20.1773 80.6677 18.5625 76.2802 18.5625 71.6019C18.5625 67.3598 19.1388 63.1437 19.6321 59.4208C20.2396 55.0021 20.9042 48.1638 19.8035 46.8917C19.601 46.6633 19.196 46.5438 18.5625 46.5438C17.1502 46.5438 15.9923 45.3912 15.9923 43.9737C15.9923 42.5562 17.145 41.4035 18.5625 41.4035C20.7277 41.4035 22.4619 42.1252 23.6717 43.5115C26.3302 46.5438 25.6344 53.5846 24.7413 60.1425C24.2481 63.72 23.7288 67.7337 23.7029 71.659C23.6458 76.6229 27.4569 79.8006 28.1787 80.2887V71.4825C28.1787 50.8431 43.0754 47.0008 52.0529 43.2779L64.9558 37.3587C64.9558 37.3587 68.2477 28.2358 70.0962 26.216C76.6229 19.17 83.6065 18.2458 83.6065 18.2458C82.5369 21.9687 80.7508 25.8681 81.4985 24.7985C81.4985 24.7985 85.1383 26.8183 86.2338 28.2929C87.101 29.4456 87.7344 33.2308 87.7344 33.2308C88.1083 33.8642 89.209 35.3077 89.1467 35.9723C89.0014 37.4729 87.4125 38.4542 86.2598 39.2331L86.265 39.2383Z" fill="#C75E90"/>
</svg>
