<svg width="188" height="73" viewBox="0 0 188 73" fill="none" xmlns="http://www.w3.org/2000/svg">
<g clip-path="url(#clip0_1_357)">
<path d="M36.4545 0C16.3204 0 0 16.3408 0 36.5C0 56.6592 16.3204 73 36.4545 73C56.5886 73 72.909 56.6592 72.909 36.5C72.909 16.3408 56.5886 0 36.4545 0ZM58.236 26.5222C57.8855 26.7573 55.3337 28.4946 54.3382 30.7583C54.3382 30.7583 51.8425 37.6476 47.2261 44.9055C46.2131 48.1835 51.3973 57.4349 51.3973 57.4349H51.3588C52.2351 57.4349 52.9361 58.1578 52.9361 59.0142C52.9361 59.8705 52.214 60.5935 51.3588 60.5935H49.4484C49.3503 60.5935 49.2731 60.5549 49.175 60.5338C49.154 60.5128 49.1364 60.5128 49.1154 60.5128C48.5686 60.397 48.1409 60.0039 47.9657 59.4775C47.9657 59.4564 47.9447 59.4564 47.9447 59.4388C47.3032 58.035 40.8501 48.1414 40.8501 48.1414C39.2902 45.253 36.2687 43.4596 32.9948 43.4596C31.5927 43.4596 30.2677 43.7719 29.0199 44.3966L29.5842 45.5267C30.6568 45.0003 31.7855 44.7265 32.9948 44.7265C35.7429 44.7265 38.2387 46.19 39.6197 48.552C39.9527 49.2925 40.1455 50.1313 40.1455 51.0123L38.2947 57.119H42.1154C43.0689 57.119 43.8505 57.8981 43.8505 58.8562C43.8505 59.8144 43.0724 60.5935 42.1154 60.5935H24.7119C20.9894 60.5935 17.8312 59.2669 15.5913 56.7505C13.6214 54.5254 12.5312 51.5598 12.5312 48.3976C12.5312 45.5302 12.9203 42.6804 13.2533 40.164C13.6634 37.1774 14.1121 32.5552 13.369 31.6953C13.2323 31.5409 12.9589 31.4602 12.5312 31.4602C11.5778 31.4602 10.7961 30.6811 10.7961 29.7229C10.7961 28.7648 11.5743 27.9857 12.5312 27.9857C13.9929 27.9857 15.1637 28.4735 15.9804 29.4106C17.7751 31.4602 17.3054 36.2192 16.7025 40.6519C16.3695 43.07 16.0189 45.7829 16.0014 48.4362C15.9629 51.7914 18.5357 53.9393 19.0229 54.2692V48.3169C19.0229 34.3662 29.0795 31.769 35.14 29.2526L43.8505 25.2517C43.8505 25.2517 46.0729 19.0853 47.3207 17.72C51.7268 12.9575 56.4414 12.3328 56.4414 12.3328C55.7193 14.8492 54.5135 17.4849 55.0182 16.7619C55.0182 16.7619 57.4754 18.1272 58.215 19.1239C58.8004 19.903 59.228 22.4615 59.228 22.4615C59.4804 22.8897 60.2235 23.8654 60.1814 24.3146C60.0833 25.3289 59.0107 25.9922 58.2325 26.5187L58.236 26.5222Z" fill="#C75E90"/>
<path d="M77.6727 32.9268C77.6727 29.9962 78.5525 27.4377 80.3086 25.2618C82.4013 22.5804 85.4543 21.2397 89.4713 21.2397C95.4968 21.8259 99.2194 24.5493 100.643 29.4066C100.895 30.4981 101.06 31.6703 101.144 32.9268V47.253C101.144 48.5937 100.516 49.5588 99.2615 50.1449C98.7602 50.3976 98.2975 50.5205 97.8804 50.5205C96.4573 50.5205 95.4968 49.8501 94.9921 48.5095C94.8238 48.0918 94.7397 47.6707 94.7397 47.253V32.9268C94.5715 29.8278 92.8153 28.1116 89.4678 27.7746C86.6216 27.7746 84.9075 29.1153 84.3221 31.7967C84.238 32.2143 84.1959 32.5934 84.1959 32.9268V47.253C84.1959 48.5937 83.5264 49.5588 82.1874 50.1449C81.8509 50.3976 81.4338 50.5205 80.9326 50.5205C79.5094 50.5205 78.5069 49.8501 77.9216 48.5095C77.7533 48.0918 77.6692 47.6707 77.6692 47.253V32.9268H77.6727Z" fill="#232323"/>
<path d="M124.867 42.8559C125.87 42.0171 127.002 41.8101 128.257 42.2277C129.428 42.7296 130.097 43.6526 130.265 44.9933C130.434 46.2497 130.013 47.257 129.011 48.008C127.672 49.0118 126.164 49.7277 124.492 50.1454C123.322 50.3981 121.229 50.4823 118.218 50.3981C116.125 50.3981 114.033 49.6856 111.944 48.2607C108.344 45.5794 106.419 41.5152 106.17 36.0718V34.689C106.503 28.9929 108.431 24.9288 111.944 22.5001C114.12 21.0752 116.462 20.3628 118.972 20.3628C120.812 20.3628 122.568 20.7804 124.243 21.6192C128.26 24.1321 130.269 28.3226 130.269 34.1872V35.4436C130.269 35.8613 130.185 36.2824 130.017 36.7001C129.431 38.0407 128.383 38.7111 126.879 38.7111H113.198C113.784 41.5609 115.459 43.1928 118.218 43.614H119.347C122.273 43.614 124.117 43.3613 124.871 42.8594L124.867 42.8559ZM118.716 27.1469H118.214C117.377 27.1469 116.539 27.3996 115.705 27.9014C114.366 28.8245 113.528 30.2073 113.195 32.0498H123.486V31.7971C123.15 29.7019 122.316 28.3191 120.977 27.6488C120.391 27.3153 119.722 27.1469 118.968 27.1469H118.716Z" fill="#232323"/>
<path d="M138.422 8.42285C139.34 8.42285 140.136 8.75977 140.806 9.4266C141.475 10.0969 141.808 10.8936 141.808 11.8131V30.2878L152.478 20.1099C153.565 19.1061 154.82 18.8955 156.243 19.4816C156.576 19.6501 156.912 19.8993 157.245 20.2362C158.248 21.3242 158.458 22.542 157.873 23.8792C157.62 24.2968 157.371 24.6759 157.119 25.0093L149.337 32.2988L158.752 45.1159C159.671 46.3723 159.713 47.6288 158.879 48.8852C158.626 49.2221 158.335 49.5134 157.999 49.7661C156.828 50.6856 155.573 50.7278 154.234 49.8925C153.898 49.724 153.607 49.4748 153.354 49.1379L144.444 36.949L141.808 39.4619V47.1269C141.808 48.3833 141.265 49.3485 140.178 50.0188C139.007 50.6892 137.875 50.6892 136.789 50.0188C135.702 49.3485 135.159 48.3833 135.159 47.1269V11.8131C135.159 10.3882 135.786 9.38449 137.041 8.79838C137.458 8.54569 137.921 8.42285 138.422 8.42285Z" fill="#232323"/>
<path d="M182.353 22.7489C186.118 25.5987 188.004 29.8699 188.004 35.566C188.004 41.6833 186.121 45.9966 182.353 48.5095C180.26 49.8501 177.919 50.5205 175.325 50.5205C172.395 50.5205 169.801 49.6817 167.543 48.0076C164.364 45.3262 162.815 41.1814 162.899 35.566C162.899 29.6172 164.781 25.3881 168.546 22.8717C170.554 21.4468 172.815 20.7344 175.325 20.7344C178.003 20.7344 180.345 21.4047 182.353 22.7454V22.7489ZM175.325 43.9891C179.426 43.9891 181.473 41.1814 181.473 35.5695C181.473 29.9576 179.423 27.4026 175.325 27.4026C174.235 27.4026 173.19 27.7396 172.188 28.4064C170.348 29.5786 169.426 31.9687 169.426 35.5695V36.0714C169.426 41.3499 171.392 43.9891 175.325 43.9891Z" fill="#232323"/>
<path d="M149.926 54.7432H153.817V68.7325H149.926V54.7432Z" fill="#C75E90"/>
<path d="M156.376 54.7432H159.99L165.738 62.1379V54.7432H169.569V68.7325H166.176L160.207 61.057V68.7325H156.376V54.7432Z" fill="#C75E90"/>
<path d="M172.044 54.7432H175.658L181.407 62.1379V54.7432H185.238V68.7325H181.845L175.875 61.057V68.7325H172.044V54.7432Z" fill="#C75E90"/>
</g>
<defs>
<clipPath id="clip0_1_357">
<rect width="188" height="73" fill="white"/>
</clipPath>
</defs>
</svg>
