<svg width="41" height="41" viewBox="0 0 41 41" fill="none" xmlns="http://www.w3.org/2000/svg">
<path d="M39.6238 35.7712V30.0129C39.6472 29.0716 39.3232 28.1545 38.7133 27.4361C36.9933 25.4101 31.0942 24.1141 28.7559 24.6119C26.9331 24.9998 25.6579 26.83 24.4111 28.0743C19.5962 25.3419 15.6096 21.3631 12.8718 16.5578C14.1185 15.3135 15.9524 14.0408 16.3411 12.2216C16.839 9.89152 15.5449 4.03017 13.5329 2.30329C12.8252 1.69588 11.9204 1.36602 10.987 1.37519H5.21735C3.01897 1.37725 1.18998 3.34901 1.39013 5.55952C1.37512 24.6119 16.2501 39.625 35.4312 39.61C37.6536 39.8105 39.6328 37.9724 39.6238 35.7712Z" stroke="white" stroke-width="2.6" stroke-linecap="round" stroke-linejoin="round"/>
</svg>
