<svg width="88" height="88" viewBox="0 0 88 88" fill="none" xmlns="http://www.w3.org/2000/svg">
<path d="M10.9999 77C21.9999 77 36.6666 73.3334 36.6666 47.6667V18.3334C36.6666 13.75 33.8946 10.9377 29.3333 11H14.6666C10.0833 11 7.33325 13.75 7.33325 18.2307V40.3334C7.33325 44.9167 10.0833 47.6667 14.6666 47.6667C18.3333 47.6667 18.3333 47.6667 18.3333 51.3334V55C18.3333 58.6667 14.6666 62.3334 10.9999 62.3334C7.33325 62.3334 7.33325 62.3627 7.33325 66.1137V73.3334C7.33325 77 7.33325 77 10.9999 77Z" stroke="#C75E90" stroke-width="2" stroke-linecap="round" stroke-linejoin="round"/>
<path d="M54.9999 77C65.9999 77 80.6666 73.3334 80.6666 47.6667V18.3334C80.6666 13.75 77.8909 10.9377 73.3333 11H58.6666C54.0833 11 51.3333 13.75 51.3333 18.2307V40.3334C51.3333 44.9167 54.0833 47.6667 58.6666 47.6667H61.4166C61.4166 55.9167 62.3333 62.3334 51.3333 62.3334V73.3334C51.3333 77 51.3333 77 54.9999 77Z" stroke="#C75E90" stroke-width="2" stroke-linecap="round" stroke-linejoin="round"/>
</svg>
