<svg width="44" height="44" viewBox="0 0 44 44" fill="none" xmlns="http://www.w3.org/2000/svg">
<path d="M25.575 22L19.8 18.7V25.3L25.575 22Z" fill="#C75E90"/>
<path fill-rule="evenodd" clip-rule="evenodd" d="M0 22C0 9.84974 9.84974 0 22 0C34.1503 0 44 9.84974 44 22C44 34.1503 34.1503 44 22 44C9.84974 44 0 34.1503 0 22ZM30.525 14.7125C31.4875 14.9875 32.175 15.675 32.45 16.6375C33 18.425 33 22 33 22C33 22 33 25.575 32.5875 27.3625C32.3125 28.325 31.625 29.0125 30.6625 29.2875C28.875 29.7 22 29.7 22 29.7C22 29.7 14.9875 29.7 13.3375 29.2875C12.375 29.0125 11.6875 28.325 11.4125 27.3625C11 25.575 11 22 11 22C11 22 11 18.425 11.275 16.6375C11.55 15.675 12.2375 14.9875 13.2 14.7125C14.9875 14.3 21.8625 14.3 21.8625 14.3C21.8625 14.3 28.875 14.3 30.525 14.7125Z" fill="#C75E90"/>
</svg>
